<?xml version="1.0" encoding="UTF-8"?>
<svg width="37px" height="37px" viewBox="0 0 37 37" version="1.1" xmlns="http://www.w3.org/2000/svg" xmlns:xlink="http://www.w3.org/1999/xlink">
    <!-- Generator: Sketch 48.2 (47327) - http://www.bohemiancoding.com/sketch -->
    <title>Combined Shape</title>
    <desc>Created with Sketch.</desc>
    <defs></defs>
    <g id="Test_Desktop" stroke="none" stroke-width="1" fill="none" fill-rule="evenodd" transform="translate(-1717.000000, -22.000000)">
        <g id="Logo" transform="translate(1207.000000, 5.000000)" fill="#C8A068">
            <path d="M535.8037,20.5954 C531.7817,20.5954 528.5207,23.8564 528.5207,27.8784 L528.5207,43.3124 C528.5207,47.3344 531.7817,50.5954 535.8037,50.5954 C539.8257,50.5954 543.0867,47.3344 543.0867,43.3124 L543.0867,27.8784 C543.0867,23.8564 539.8257,20.5954 535.8037,20.5954 M535.8037,17.5954 C541.4827,17.5954 546.0867,22.1994 546.0867,27.8784 L546.0867,43.3124 C546.0867,48.9914 541.4827,53.5954 535.8037,53.5954 C530.1247,53.5954 525.5207,48.9914 525.5207,43.3124 L525.5207,27.8784 C525.5207,22.1994 530.1247,17.5954 535.8037,17.5954 Z M510,21.6735 L510,18.6735 L513.432,18.6765 C516.615,18.4905 518.538,20.1775 518.538,23.2605 L518.538,53.5525 L515.538,53.5525 L515.538,23.2605 C515.538,21.9545 515.115,21.5835 513.519,21.6735 L510,21.6735 Z M546.8859,0.879 C546.8999,0.912 546.9149,0.944 546.9309,0.976 L546.8859,0.879 Z M550.1189,0.879 L550.0719,0.98 C550.0889,0.947 550.1039,0.913 550.1189,0.879 Z M558.0949,35.378 L558.0829,35.306 C558.0859,35.33 558.0899,35.354 558.0949,35.378 Z" id="Combined-Shape"></path>
        </g>
    </g>
</svg>